<mxfile host="app.diagrams.net" agent="Mozilla/5.0 (Windows NT 10.0; Win64; x64) AppleWebKit/537.36 (KHTML, like Gecko) Chrome/137.0.0.0 Safari/537.36" version="27.1.4">
  <diagram name="Page-1" id="e7e014a7-5840-1c2e-5031-d8a46d1fe8dd">
    <mxGraphModel dx="786" dy="463" grid="1" gridSize="10" guides="1" tooltips="1" connect="1" arrows="1" fold="1" page="1" pageScale="1" pageWidth="1169" pageHeight="826" background="none" math="0" shadow="0">
      <root>
        <mxCell id="0" />
        <mxCell id="1" parent="0" />
        <mxCell id="ONtBdwJ50-OyAQ2Jtk-u-54" value="教師 (後台)" style="swimlane;whiteSpace=wrap;html=1;" parent="1" vertex="1">
          <mxGeometry x="120" y="60" width="120" height="200" as="geometry" />
        </mxCell>
        <mxCell id="ONtBdwJ50-OyAQ2Jtk-u-57" value="&lt;div style=&quot;line-height: 60%;&quot;&gt;&lt;span style=&quot;font-size: 12px; font-weight: 400; line-height: 60%;&quot;&gt;1. 建立/編輯文章&lt;/span&gt;&lt;div&gt;&lt;span style=&quot;font-size: 12px; font-weight: 400; line-height: 60%;&quot;&gt;、設定4F問題&lt;/span&gt;&lt;/div&gt;&lt;/div&gt;" style="text;strokeColor=none;fillColor=none;html=1;fontSize=24;fontStyle=1;verticalAlign=middle;align=center;" parent="ONtBdwJ50-OyAQ2Jtk-u-54" vertex="1">
          <mxGeometry x="10" y="25" width="100" height="40" as="geometry" />
        </mxCell>
        <mxCell id="ONtBdwJ50-OyAQ2Jtk-u-69" value="&lt;div style=&quot;line-height: 60%;&quot;&gt;&lt;span style=&quot;font-size: 12px; font-weight: 400;&quot;&gt;11. 學生數據儀表板&lt;/span&gt;&lt;/div&gt;" style="text;strokeColor=none;fillColor=none;html=1;fontSize=24;fontStyle=1;verticalAlign=middle;align=center;" parent="ONtBdwJ50-OyAQ2Jtk-u-54" vertex="1">
          <mxGeometry x="10" y="160" width="100" height="40" as="geometry" />
        </mxCell>
        <mxCell id="ONtBdwJ50-OyAQ2Jtk-u-58" value="&lt;div style=&quot;line-height: 60%;&quot;&gt;&lt;span style=&quot;font-size: 12px; font-weight: 400;&quot;&gt;2. 指派任務給學生&lt;/span&gt;&lt;/div&gt;" style="text;strokeColor=none;fillColor=none;html=1;fontSize=24;fontStyle=1;verticalAlign=middle;align=left;" parent="ONtBdwJ50-OyAQ2Jtk-u-54" vertex="1">
          <mxGeometry x="10" y="81" width="100" height="40" as="geometry" />
        </mxCell>
        <mxCell id="ONtBdwJ50-OyAQ2Jtk-u-70" value="" style="endArrow=classic;html=1;rounded=0;exitX=0.5;exitY=1;exitDx=0;exitDy=0;" parent="ONtBdwJ50-OyAQ2Jtk-u-54" source="ONtBdwJ50-OyAQ2Jtk-u-57" target="ONtBdwJ50-OyAQ2Jtk-u-58" edge="1">
          <mxGeometry width="50" height="50" relative="1" as="geometry">
            <mxPoint x="370" y="130" as="sourcePoint" />
            <mxPoint x="420" y="80" as="targetPoint" />
          </mxGeometry>
        </mxCell>
        <mxCell id="ONtBdwJ50-OyAQ2Jtk-u-55" value="學生(平板)" style="swimlane;whiteSpace=wrap;html=1;" parent="1" vertex="1">
          <mxGeometry x="284" y="58" width="146" height="302" as="geometry" />
        </mxCell>
        <mxCell id="ONtBdwJ50-OyAQ2Jtk-u-59" value="&lt;div style=&quot;line-height: 60%;&quot;&gt;&lt;span style=&quot;font-size: 12px; font-weight: 400;&quot;&gt;3. 登入系統&lt;/span&gt;&lt;/div&gt;" style="text;strokeColor=none;fillColor=none;html=1;fontSize=24;fontStyle=1;verticalAlign=middle;align=left;" parent="ONtBdwJ50-OyAQ2Jtk-u-55" vertex="1">
          <mxGeometry x="30" y="82" width="100" height="40" as="geometry" />
        </mxCell>
        <mxCell id="ONtBdwJ50-OyAQ2Jtk-u-60" value="&lt;div style=&quot;line-height: 60%;&quot;&gt;&lt;span style=&quot;font-size: 12px; font-weight: 400;&quot;&gt;4. 閱讀文章&lt;/span&gt;&lt;/div&gt;" style="text;strokeColor=none;fillColor=none;html=1;fontSize=24;fontStyle=1;verticalAlign=middle;align=left;" parent="ONtBdwJ50-OyAQ2Jtk-u-55" vertex="1">
          <mxGeometry x="29" y="139" width="100" height="40" as="geometry" />
        </mxCell>
        <mxCell id="ONtBdwJ50-OyAQ2Jtk-u-65" value="&lt;div style=&quot;line-height: 60%;&quot;&gt;&lt;span style=&quot;font-size: 12px; font-weight: 400;&quot;&gt;5. 輸入英文回答&lt;/span&gt;&lt;/div&gt;" style="text;strokeColor=none;fillColor=none;html=1;fontSize=24;fontStyle=1;verticalAlign=middle;align=left;" parent="ONtBdwJ50-OyAQ2Jtk-u-55" vertex="1">
          <mxGeometry x="19" y="200" width="100" height="40" as="geometry" />
        </mxCell>
        <mxCell id="ONtBdwJ50-OyAQ2Jtk-u-61" value="&lt;div style=&quot;line-height: 60%;&quot;&gt;&lt;span style=&quot;font-size: 12px; font-weight: 400;&quot;&gt;6. 與AI對話互動&lt;/span&gt;&lt;/div&gt;" style="text;strokeColor=none;fillColor=none;html=1;fontSize=24;fontStyle=1;verticalAlign=middle;align=left;" parent="ONtBdwJ50-OyAQ2Jtk-u-55" vertex="1">
          <mxGeometry x="23" y="262" width="100" height="40" as="geometry" />
        </mxCell>
        <mxCell id="ONtBdwJ50-OyAQ2Jtk-u-72" value="" style="endArrow=classic;html=1;rounded=0;exitX=0.25;exitY=1;exitDx=0;exitDy=0;" parent="ONtBdwJ50-OyAQ2Jtk-u-55" edge="1">
          <mxGeometry width="50" height="50" relative="1" as="geometry">
            <mxPoint x="70" y="120" as="sourcePoint" />
            <mxPoint x="70" y="140" as="targetPoint" />
          </mxGeometry>
        </mxCell>
        <mxCell id="ONtBdwJ50-OyAQ2Jtk-u-79" value="" style="endArrow=classic;html=1;rounded=0;exitX=1;exitY=0.5;exitDx=0;exitDy=0;" parent="ONtBdwJ50-OyAQ2Jtk-u-55" edge="1">
          <mxGeometry width="50" height="50" relative="1" as="geometry">
            <mxPoint x="139" y="279.41" as="sourcePoint" />
            <mxPoint x="269" y="280" as="targetPoint" />
          </mxGeometry>
        </mxCell>
        <mxCell id="ONtBdwJ50-OyAQ2Jtk-u-56" value="系統後端 (AI服務與數據處理)   " style="swimlane;whiteSpace=wrap;html=1;" parent="1" vertex="1">
          <mxGeometry x="520" y="58" width="170" height="460" as="geometry" />
        </mxCell>
        <mxCell id="ONtBdwJ50-OyAQ2Jtk-u-62" value="&lt;div style=&quot;line-height: 60%;&quot;&gt;&lt;div&gt;&lt;span style=&quot;font-size: 12px; font-weight: 400; line-height: 60%;&quot;&gt;7. 接收學生回答&lt;/span&gt;&lt;/div&gt;&lt;div&gt;&lt;span style=&quot;font-size: 12px; font-weight: 400; line-height: 60%;&quot;&gt;與對話上下文&lt;/span&gt;&lt;/div&gt;&lt;/div&gt;" style="text;strokeColor=none;fillColor=none;html=1;fontSize=24;fontStyle=1;verticalAlign=middle;align=center;" parent="ONtBdwJ50-OyAQ2Jtk-u-56" vertex="1">
          <mxGeometry x="29" y="260" width="100" height="40" as="geometry" />
        </mxCell>
        <mxCell id="ONtBdwJ50-OyAQ2Jtk-u-68" value="&lt;div style=&quot;line-height: 60%;&quot;&gt;&lt;span style=&quot;font-size: 12px; font-weight: 400;&quot;&gt;10. 數據分析與學習歷程建檔&lt;/span&gt;&lt;/div&gt;" style="text;strokeColor=none;fillColor=none;html=1;fontSize=24;fontStyle=1;verticalAlign=middle;align=center;" parent="ONtBdwJ50-OyAQ2Jtk-u-56" vertex="1">
          <mxGeometry x="29" y="420" width="100" height="40" as="geometry" />
        </mxCell>
        <mxCell id="ONtBdwJ50-OyAQ2Jtk-u-64" value="&lt;div style=&quot;line-height: 60%;&quot;&gt;&lt;span style=&quot;font-size: 12px; font-weight: 400;&quot;&gt;9. 儲存互動紀錄與星星評分&lt;/span&gt;&lt;/div&gt;" style="text;strokeColor=none;fillColor=none;html=1;fontSize=24;fontStyle=1;verticalAlign=middle;align=center;" parent="ONtBdwJ50-OyAQ2Jtk-u-56" vertex="1">
          <mxGeometry x="29" y="370" width="100" height="40" as="geometry" />
        </mxCell>
        <mxCell id="ONtBdwJ50-OyAQ2Jtk-u-63" value="&lt;div style=&quot;line-height: 60%;&quot;&gt;&lt;span style=&quot;font-size: 12px; font-weight: 400;&quot;&gt;8. 生成AI回應與引導語句&lt;/span&gt;&lt;/div&gt;" style="text;strokeColor=none;fillColor=none;html=1;fontSize=24;fontStyle=1;verticalAlign=middle;align=center;" parent="ONtBdwJ50-OyAQ2Jtk-u-56" vertex="1">
          <mxGeometry x="29" y="320" width="100" height="40" as="geometry" />
        </mxCell>
        <mxCell id="ONtBdwJ50-OyAQ2Jtk-u-74" value="" style="endArrow=classic;html=1;rounded=0;exitX=0.5;exitY=1;exitDx=0;exitDy=0;entryX=0.4;entryY=0.25;entryDx=0;entryDy=0;entryPerimeter=0;" parent="1" edge="1">
          <mxGeometry width="50" height="50" relative="1" as="geometry">
            <mxPoint x="355" y="238" as="sourcePoint" />
            <mxPoint x="355" y="258" as="targetPoint" />
          </mxGeometry>
        </mxCell>
        <mxCell id="ONtBdwJ50-OyAQ2Jtk-u-76" value="" style="endArrow=classic;html=1;rounded=0;exitX=0.25;exitY=1;exitDx=0;exitDy=0;" parent="1" edge="1">
          <mxGeometry width="50" height="50" relative="1" as="geometry">
            <mxPoint x="356" y="300" as="sourcePoint" />
            <mxPoint x="356" y="320" as="targetPoint" />
          </mxGeometry>
        </mxCell>
        <mxCell id="ONtBdwJ50-OyAQ2Jtk-u-77" value="" style="endArrow=classic;html=1;rounded=0;exitX=0.25;exitY=1;exitDx=0;exitDy=0;" parent="1" edge="1">
          <mxGeometry width="50" height="50" relative="1" as="geometry">
            <mxPoint x="607" y="357" as="sourcePoint" />
            <mxPoint x="607" y="377" as="targetPoint" />
          </mxGeometry>
        </mxCell>
        <mxCell id="ONtBdwJ50-OyAQ2Jtk-u-78" value="" style="endArrow=classic;html=1;rounded=0;exitX=0.25;exitY=1;exitDx=0;exitDy=0;" parent="1" edge="1">
          <mxGeometry width="50" height="50" relative="1" as="geometry">
            <mxPoint x="608" y="415" as="sourcePoint" />
            <mxPoint x="608" y="435" as="targetPoint" />
          </mxGeometry>
        </mxCell>
        <mxCell id="ONtBdwJ50-OyAQ2Jtk-u-80" value="" style="endArrow=classic;html=1;rounded=0;exitX=0.25;exitY=1;exitDx=0;exitDy=0;" parent="1" edge="1">
          <mxGeometry width="50" height="50" relative="1" as="geometry">
            <mxPoint x="610" y="465" as="sourcePoint" />
            <mxPoint x="610" y="485" as="targetPoint" />
          </mxGeometry>
        </mxCell>
        <mxCell id="ONtBdwJ50-OyAQ2Jtk-u-81" value="" style="curved=1;endArrow=classic;html=1;rounded=0;entryX=0.619;entryY=0.973;entryDx=0;entryDy=0;entryPerimeter=0;" parent="1" source="ONtBdwJ50-OyAQ2Jtk-u-63" target="ONtBdwJ50-OyAQ2Jtk-u-61" edge="1">
          <mxGeometry width="50" height="50" relative="1" as="geometry">
            <mxPoint x="413" y="578" as="sourcePoint" />
            <mxPoint x="463" y="528" as="targetPoint" />
            <Array as="points">
              <mxPoint x="413" y="528" />
            </Array>
          </mxGeometry>
        </mxCell>
        <mxCell id="ONtBdwJ50-OyAQ2Jtk-u-82" value="" style="curved=1;endArrow=classic;html=1;rounded=0;entryX=0.5;entryY=1;entryDx=0;entryDy=0;exitX=0.425;exitY=0.973;exitDx=0;exitDy=0;exitPerimeter=0;" parent="1" source="ONtBdwJ50-OyAQ2Jtk-u-68" target="ONtBdwJ50-OyAQ2Jtk-u-69" edge="1">
          <mxGeometry width="50" height="50" relative="1" as="geometry">
            <mxPoint x="774" y="571" as="sourcePoint" />
            <mxPoint x="570" y="510" as="targetPoint" />
            <Array as="points">
              <mxPoint x="588" y="681" />
            </Array>
          </mxGeometry>
        </mxCell>
        <mxCell id="ONtBdwJ50-OyAQ2Jtk-u-71" value="" style="endArrow=classic;html=1;rounded=0;exitX=1;exitY=0.5;exitDx=0;exitDy=0;entryX=0;entryY=0.5;entryDx=0;entryDy=0;" parent="1" target="ONtBdwJ50-OyAQ2Jtk-u-59" edge="1" source="ONtBdwJ50-OyAQ2Jtk-u-58">
          <mxGeometry width="50" height="50" relative="1" as="geometry">
            <mxPoint x="353" y="128" as="sourcePoint" />
            <mxPoint x="633" y="128" as="targetPoint" />
          </mxGeometry>
        </mxCell>
      </root>
    </mxGraphModel>
  </diagram>
</mxfile>
